{
  "accessors": [
    {
      "bufferView": 3,
      "componentType": 5126,
      "count": 23655,
      "max": [
        0.9819484949111938,
        4.983695030212402,
        2.033159017562866
      ],
      "min": [
        -1.242113709449768,
        -0.5511575937271118,
        -2.0431971549987793
      ],
      "type": "VEC3"
    },
    {
      "bufferView": 3,
      "byteOffset": 283860,
      "componentType": 5126,
      "count": 23655,
      "max": [
        1.0,
        1.0,
        1.0
      ],
      "min": [
        -1.0,
        -1.0,
        -1.0
      ],
      "type": "VEC3"
    },
    {
      "bufferView": 4,
      "componentType": 5126,
      "count": 23655,
      "max": [
        0.9999851584434509,
        1.0,
        1.0,
        1.0
      ],
      "min": [
        -1.0,
        -1.0,
        -1.0,
        -1.0
      ],
      "type": "VEC4"
    },
    {
      "bufferView": 2,
      "componentType": 5126,
      "count": 23655,
      "max": [
        0.9999999403953552,
        1.0
      ],
      "min": [
        0.0,
        0.0
      ],
      "type": "VEC2"
    },
    {
      "bufferView": 1,
      "componentType": 5125,
      "count": 35322,
      "type": "SCALAR"
    },
    {
      "bufferView": 5,
      "componentType": 5126,
      "count": 5,
      "max": [
        100.0,
        0.9999977350234985,
        0.9953451752662659,
        0.0,
        0.001587123260833323,
        99.99999237060547,
        0.015526321716606617,
        0.0,
        0.07883211225271225,
        0.00030181973124854267,
        100.0,
        0.0,
        0.004052456934005022,
        0.9999977350234985,
        0.005089178215712309,
        1.0
      ],
      "min": [
        0.002150885993614793,
        -0.0016159451333805919,
        -0.07883152365684509,
        0.0,
        -0.9998770356178284,
        0.002152478788048029,
        -0.0004282684240024537,
        0.0,
        -0.9953452944755554,
        -1.1641517749794161e-09,
        0.09637421369552612,
        0.0,
        0.0,
        -0.66130530834198,
        -0.0004056040197610855,
        1.0
      ],
      "type": "MAT4"
    },
    {
      "bufferView": 0,
      "componentType": 5123,
      "count": 23655,
      "type": "VEC4"
    },
    {
      "bufferView": 4,
      "byteOffset": 378480,
      "componentType": 5126,
      "count": 23655,
      "max": [
        1.0,
        0.5,
        0.0,
        0.0
      ],
      "min": [
        0.5,
        0.0,
        0.0,
        0.0
      ],
      "type": "VEC4"
    },
    {
      "bufferView": 6,
      "componentType": 5126,
      "count": 121,
      "max": [
        4.0
      ],
      "min": [
        0.0
      ],
      "type": "SCALAR"
    },
    {
      "bufferView": 7,
      "componentType": 5126,
      "count": 121,
      "max": [
        0.0007276292890310287,
        1.1501246690750122,
        7.651187479496002e-05
      ],
      "min": [
        -0.0002835202612914145,
        0.48051321506500244,
        -0.00013591814786195755
      ],
      "type": "VEC3"
    }
  ],
  "animations": [
    {
      "channels": [
        {
          "sampler": 0,
          "target": {
            "node": 17,
            "path": "translation"
          }
        }
      ],
      "name": "Armature|ArmatureAction.002",
      "samplers": [
        {
          "input": 8,
          "interpolation": "LINEAR",
          "output": 9
        }
      ]
    }
  ],
  "asset": {
    "extras": {
      "author": "Matt LeMoine (https://sketchfab.com/Matt_LeMoine)",
      "license": "CC-BY-4.0 (http://creativecommons.org/licenses/by/4.0/)",
      "source": "https://sketchfab.com/3d-models/robot-toy-8dfebb55289c41a99593ccc678bcafd4",
      "title": "Robot Toy"
    },
    "generator": "Sketchfab-12.67.0",
    "version": "2.0"
  },
  "bufferViews": [
    {
      "buffer": 0,
      "byteLength": 189240,
      "byteStride": 8,
      "name": "shortBufferViews",
      "target": 34962
    },
    {
      "buffer": 0,
      "byteLength": 141288,
      "byteOffset": 189240,
      "name": "floatBufferViews",
      "target": 34963
    },
    {
      "buffer": 0,
      "byteLength": 189240,
      "byteOffset": 330528,
      "byteStride": 8,
      "name": "floatBufferViews",
      "target": 34962
    },
    {
      "buffer": 0,
      "byteLength": 567720,
      "byteOffset": 519768,
      "byteStride": 12,
      "name": "floatBufferViews",
      "target": 34962
    },
    {
      "buffer": 0,
      "byteLength": 756960,
      "byteOffset": 1087488,
      "byteStride": 16,
      "name": "floatBufferViews",
      "target": 34962
    },
    {
      "buffer": 0,
      "byteLength": 320,
      "byteOffset": 1844448,
      "name": "floatBufferViews"
    },
    {
      "buffer": 0,
      "byteLength": 484,
      "byteOffset": 1844768,
      "name": "floatBufferViews"
    },
    {
      "buffer": 0,
      "byteLength": 1452,
      "byteOffset": 1845252,
      "byteStride": 12,
      "name": "floatBufferViews"
    }
  ],
  "buffers": [
    {
      "byteLength": 1846704,
      "uri": "scene.bin"
    }
  ],
  "images": [
    {
      "uri": "textures/Robit_baseColor.png"
    },
    {
      "uri": "textures/Robit_metallicRoughness.png"
    },
    {
      "uri": "textures/Robit_emissive.png"
    },
    {
      "uri": "textures/Robit_normal.png"
    }
  ],
  "materials": [
    {
      "doubleSided": true,
      "emissiveFactor": [
        1.0,
        1.0,
        1.0
      ],
      "emissiveTexture": {
        "index": 2
      },
      "name": "Robit",
      "normalTexture": {
        "index": 3
      },
      "occlusionTexture": {
        "index": 1
      },
      "pbrMetallicRoughness": {
        "baseColorTexture": {
          "index": 0
        },
        "metallicRoughnessTexture": {
          "index": 1
        }
      }
    }
  ],
  "meshes": [
    {
      "name": "Sphere_Robit_0",
      "primitives": [
        {
          "attributes": {
            "JOINTS_0": 6,
            "NORMAL": 1,
            "POSITION": 0,
            "TANGENT": 2,
            "TEXCOORD_0": 3,
            "TEXCOORD_1": 3,
            "TEXCOORD_2": 3,
            "WEIGHTS_0": 7
          },
          "indices": 4,
          "material": 0,
          "mode": 4
        }
      ]
    }
  ],
  "nodes": [
    {
      "children": [
        1
      ],
      "matrix": [
        1.0,
        0.0,
        0.0,
        0.0,
        0.0,
        2.220446049250313e-16,
        -1.0,
        0.0,
        0.0,
        1.0,
        2.220446049250313e-16,
        0.0,
        0.0,
        0.0,
        0.0,
        1.0
      ],
      "name": "Sketchfab_model"
    },
    {
      "children": [
        2
      ],
      "matrix": [
        1.0,
        0.0,
        0.0,
        0.0,
        0.0,
        0.0,
        1.0,
        0.0,
        0.0,
        -1.0,
        0.0,
        0.0,
        0.0,
        0.0,
        0.0,
        1.0
      ],
      "name": "52a447563d134bda8992e659ca1fcb07.fbx"
    },
    {
      "children": [
        3
      ],
      "name": "Object_2"
    },
    {
      "children": [
        4,
        7,
        9,
        12,
        21
      ],
      "name": "RootNode"
    },
    {
      "children": [
        5
      ],
      "name": "Light",
      "rotation": [
        0.16907571256160736,
        0.7558803558349609,
        -0.2721713185310364,
        0.5709474682807922
      ],
      "scale": [
        100.00000762939453,
        100.0,
        100.0
      ],
      "translation": [
        415.6194763183594,
        425.7723693847656,
        -100.54539489746094
      ]
    },
    {
      "children": [
        6
      ],
      "matrix": [
        1.0,
        0.0,
        0.0,
        0.0,
        0.0,
        2.220446049250313e-16,
        1.0,
        0.0,
        0.0,
        -1.0,
        2.220446049250313e-16,
        0.0,
        0.0,
        0.0,
        0.0,
        1.0
      ],
      "name": "Object_5"
    },
    {
      "name": "Object_6"
    },
    {
      "children": [
        8
      ],
      "name": "Camera",
      "rotation": [
        -0.09315324574708939,
        0.9777424931526184,
        -0.01782737672328949,
        0.18714825809001923
      ],
      "scale": [
        99.99999237060547,
        99.99999237060547,
        100.00000762939453
      ],
      "translation": [
        1548.29541015625,
        569.0415649414063,
        568.8328857421875
      ]
    },
    {
      "name": "Object_8"
    },
    {
      "children": [
        10
      ],
      "name": "Light.001",
      "rotation": [
        0.16907571256160736,
        0.7558803558349609,
        -0.2721713185310364,
        0.5709474682807922
      ],
      "scale": [
        100.00000762939453,
        100.0,
        100.0
      ],
      "translation": [
        119.84854125976563,
        744.7964477539063,
        387.4410095214844
      ]
    },
    {
      "children": [
        11
      ],
      "matrix": [
        1.0,
        0.0,
        0.0,
        0.0,
        0.0,
        2.220446049250313e-16,
        1.0,
        0.0,
        0.0,
        -1.0,
        2.220446049250313e-16,
        0.0,
        0.0,
        0.0,
        0.0,
        1.0
      ],
      "name": "Object_10"
    },
    {
      "name": "Object_11"
    },
    {
      "children": [
        13
      ],
      "name": "Armature",
      "rotation": [
        -0.47973331809043884,
        0.47081753611564636,
        -0.5267916321754456,
        0.5202668309211731
      ],
      "scale": [
        100.0,
        100.0,
        100.0
      ],
      "translation": [
        -100.0,
        0.0,
        0.0
      ]
    },
    {
      "children": [
        14,
        20,
        19
      ],
      "name": "Object_13"
    },
    {
      "children": [
        15
      ],
      "name": "_rootJoint"
    },
    {
      "children": [
        16
      ],
      "name": "Base_00",
      "rotation": [
        0.6722008585929871,
        -0.00016663265705574304,
        0.00019167982100043446,
        0.7403687834739685
      ],
      "scale": [
        1.0,
        0.9999999403953552,
        0.9999998807907104
      ]
    },
    {
      "children": [
        17
      ],
      "name": "Ball_01",
      "rotation": [
        0.03344491124153137,
        -0.022275911644101143,
        0.7061254978179932,
        0.706945538520813
      ],
      "scale": [
        0.9999999403953552,
        1.0,
        0.9999999403953552
      ],
      "translation": [
        3.501554601825774e-11,
        0.995927095413208,
        1.9095502956645305e-09
      ]
    },
    {
      "children": [
        18
      ],
      "name": "Spring_02",
      "rotation": [
        0.0004034689045511186,
        0.7008529901504517,
        -0.0007161791436374187,
        0.7133052945137024
      ],
      "scale": [
        1.0,
        1.0000001192092896,
        1.0
      ],
      "translation": [
        0.0005929036997258663,
        1.0326696634292603,
        -0.0001599583774805069
      ]
    },
    {
      "name": "Spring_end_03",
      "rotation": [
        -7.858215819253763e-24,
        -6.938893903907228e-18,
        -6.617444900424222e-24,
        1.0
      ],
      "translation": [
        0.0,
        1.1842982769012451,
        0.0
      ]
    },
    {
      "matrix": [
        100.00000104437312,
        8.275331639558126e-09,
        -1.19867549724928e-06,
        0.0,
        -1.1986754296859815e-06,
        -1.5386741682022977e-07,
        -99.99999540893917,
        0.0,
        -8.275333699234066e-09,
        100.00000364613939,
        -1.5386742939540314e-07,
        0.0,
        -4.9160774153733655e-06,
        -4.5318491676341055e-09,
        -1.197732335422863e-06,
        1.0
      ],
      "name": "Object_19"
    },
    {
      "mesh": 0,
      "name": "Object_20",
      "skin": 0
    },
    {
      "name": "Sphere",
      "rotation": [
        -0.7071068286895752,
        4.11333234140443e-09,
        -9.463363426220894e-09,
        0.7071067094802856
      ],
      "scale": [
        100.0,
        100.0,
        100.0
      ],
      "translation": [
        -2.268552634632215e-06,
        1.1641532182693481e-08,
        -1.1983502190560102e-06
      ]
    }
  ],
  "samplers": [
    {
      "magFilter": 9729,
      "minFilter": 9987,
      "wrapS": 10497,
      "wrapT": 10497
    }
  ],
  "scene": 0,
  "scenes": [
    {
      "name": "Sketchfab_Scene",
      "nodes": [
        0
      ]
    }
  ],
  "skins": [
    {
      "inverseBindMatrices": 5,
      "joints": [
        14,
        15,
        16,
        17,
        18
      ],
      "skeleton": 14
    }
  ],
  "textures": [
    {
      "sampler": 0,
      "source": 0
    },
    {
      "sampler": 0,
      "source": 1
    },
    {
      "sampler": 0,
      "source": 2
    },
    {
      "sampler": 0,
      "source": 3
    }
  ]
}
